<?xml version="1.0" encoding="utf-8"?>
<!-- Generator: Adobe Illustrator 16.0.3, SVG Export Plug-In . SVG Version: 6.00 Build 0)  -->
<!DOCTYPE svg PUBLIC "-//W3C//DTD SVG 1.1//EN" "http://www.w3.org/Graphics/SVG/1.1/DTD/svg11.dtd">
<svg version="1.1" id="Layer_1" xmlns="http://www.w3.org/2000/svg" xmlns:xlink="http://www.w3.org/1999/xlink" x="0px" y="0px"
	 width="1007.672px" height="286.672px" viewBox="0 0 1007.672 286.672" enable-background="new 0 0 1007.672 286.672"
	 xml:space="preserve">
<g>
	<path fill="#EF4642" d="M994.094,133.971v-30.293h12.825c0.488-3.609,0.737-7.17,0.753-10.697V92.27
		c-0.016-3.497-0.275-7.091-0.783-10.765h-12.795V2.092h-25.496l-58.992,83.922c-0.24,2.41-0.371,4.799-0.399,7.173v1.852
		c0.034,2.821,0.223,5.703,0.575,8.639h59.839v30.293H994.094z M969.62,81.505h-31.942l29.319-42.057
		c1.063-1.464,1.944-2.896,2.623-4.105V81.505z"/>
	<path fill="#EF4642" d="M902.162,111.559h-60.184c3.282-10.669,11.386-17.091,25.01-25.333
		c14.848-8.979,35.063-20.793,35.063-44.024C902.052,16.578,883.137,0,857.569,0c-23.477,0-37.666,15.355-42.734,25.051
		c3.254,2.341,6.586,4.398,10.006,6.189l1.059,0.541c3.515,1.773,7.282,3.323,11.279,4.641c1.769-2.901,8.314-12.003,20.816-12.003
		c10.603,0,18.544,6.332,18.544,17.783c0,7.785-7.523,14.559-22.163,23.413c-14.408,8.714-45.834,26.91-40.169,68.473h87.952
		c0.532-3.836,0.797-7.618,0.797-11.361C902.956,119.103,902.692,115.374,902.162,111.559"/>
	<path fill="#2A5CAA" d="M571.304,133.971V91.215c0-6.486,0.69-11.869,2.164-16.428c5.082-16.076,17.795-21.784,27.17-21.784
		c2.554,0,4.691,0.241,5.481,0.343l0.308,0.041c0.641-4.065,0.977-8.069,1.021-12.027v0.506c-0.045-3.913-0.392-7.946-1.051-12.077
		c-0.71-0.113-2.483-0.359-4.347-0.359c-13.6,0-25.942,8.106-31.842,21.959c0.048-0.947,0.085-1.965,0.085-3.004V29.764
		l-26.079-0.012v104.219H571.304z"/>
	<path fill="#2A5CAA" d="M147.869,133.971V91.215c0-6.486,0.69-11.869,2.164-16.428c5.082-16.076,17.795-21.784,27.17-21.784
		c2.553,0,4.691,0.241,5.482,0.343l0.307,0.041c0.64-4.065,0.976-8.069,1.02-12.027v0.506c-0.045-3.913-0.391-7.946-1.051-12.077
		c-0.71-0.113-2.483-0.359-4.346-0.359c-13.6,0-25.943,8.106-31.842,21.959c0.048-0.947,0.085-1.965,0.085-3.004V29.764
		l-26.079-0.012v104.219H147.869z"/>
	<path fill="#2A5CAA" d="M342.2,168.52v-38.198c0-2.871-0.118-5.233-0.228-6.809c3.163,3.744,12.446,12.827,28.764,12.827
		c28.014,0,47.57-22.388,47.57-54.422c0-32.562-18.55-54.401-46.168-54.401c-19.203,0-29.008,10.678-32.324,15.254
		c0.097-1.254,0.176-2.862,0.176-4.642v-8.376l-24.88,0.011V168.52H342.2z M366.108,113.266c-16.979,0-24.711-15.942-24.711-30.744
		c0-23.261,12.866-31.549,24.922-31.549c14.762,0,24.709,12.608,24.709,31.353C391.028,103.7,378.502,113.266,366.108,113.266"/>
	<path fill="#2A5CAA" d="M30.824,168.52v-38.198c0-2.871-0.118-5.233-0.228-6.809c3.163,3.744,12.446,12.827,28.764,12.827
		c28.014,0,47.57-22.388,47.57-54.422c0-32.562-18.55-54.401-46.168-54.401c-19.203,0-29.009,10.678-32.324,15.254
		c0.097-1.254,0.176-2.862,0.176-4.642v-8.371H3.734V168.52H30.824z M54.733,113.266c-16.979,0-24.711-15.942-24.711-30.744
		c0-23.261,12.866-31.549,24.922-31.549c14.762,0,24.709,12.608,24.709,31.353C79.653,103.7,67.127,113.266,54.733,113.266"/>
	<path fill="#2A5CAA" d="M245.951,136.34c-31.975,0-56.104-23.397-56.104-54.423c0-31.028,24.032-54.4,55.921-54.4
		c31.979,0,56.114,23.372,56.114,54.4C301.882,112.943,277.846,136.34,245.951,136.34 M245.946,51.097
		c-16.252,0-28.532,13.251-28.532,30.834c0,17.58,12.28,30.826,28.532,30.826c16.175,0,28.367-13.246,28.367-30.826
		C274.313,64.348,262.121,51.097,245.946,51.097"/>
	<path fill="#2A5CAA" d="M635.776,2.013v27.745h-13.131c-0.583,4.016-0.869,7.973-0.869,11.886c0,3.804,0.287,7.723,0.872,11.738
		h12.535v42.2c0,35.501,30.34,39.335,43.377,39.335c4.001,0,6.752-0.401,7.654-0.562c0.631-4.178,0.941-8.291,0.941-12.357
		c0-3.747-0.281-7.607-0.848-11.559l-0.106,0.024c0,0-1.762,0.378-4.449,0.378c-7.274,0-19.473-2.391-19.473-18.482V53.382h19.396
		c0.584-4.025,0.872-7.99,0.872-11.911c0-3.796-0.286-7.707-0.869-11.713H662.28V2.013H635.776z"/>
	<path fill="#2A5CAA" d="M774.439,29.75l-20.266,60.068c-1.087,3.269-2.095,7.431-2.697,10.08
		c-0.604-2.478-1.773-7.015-3.034-10.484L726.686,29.75H695.75l43.319,102.49l-3.276,7.681c-3.374,8.033-9.479,12.638-16.744,12.638
		c-5.408,0-10.778-3.975-10.843-4.025l-1.015-0.747l-0.096,0.219c-2.165,3.509-4.027,7.08-5.599,10.729
		c-1.343,3.118-2.504,6.417-3.487,9.874l-0.107,0.246l-0.068,0.158l0.655,0.47c0.092,0.067,9.14,6.827,21.874,6.827
		c17.612,0,31.072-9.714,37.898-27.359L804.537,29.75H774.439z"/>
	<path fill="#2A5CAA" d="M482.971,27.517c-31.089,0-52.801,22.358-52.801,54.401c0,31.533,23.472,54.422,55.812,54.422
		c15.672,0,27.78-5.62,34.448-9.676c0.582-4.031,0.868-8.003,0.868-11.931c0-3.811-0.286-7.737-0.868-11.758
		c-6.367,4.412-16.579,10.083-32.64,10.083c-13.517,0-27.838-7.895-29.85-25.542h70.542l0.104-1.081
		c0.169-2.021,0.564-7.035,0.564-9.542C529.15,46.894,511.028,27.517,482.971,27.517 M458.825,68.465
		c2.604-12.352,11.348-19.688,23.544-19.688c11.239,0,18.81,7.698,19.458,19.688H458.825z"/>
	<path fill="#2A5CAA" d="M3.568,261.554c1.665,1.76,3.627,3.175,5.887,4.245c2.259,1.071,4.603,1.606,7.029,1.606
		c3.092,0,5.495-0.702,7.208-2.105c1.712-1.402,2.568-3.247,2.568-5.53c0-1.188-0.202-2.2-0.606-3.033
		c-0.405-0.831-0.952-1.545-1.641-2.141c-0.691-0.594-1.511-1.129-2.462-1.605c-0.952-0.475-1.975-0.975-3.068-1.5l-6.708-2.924
		c-1.095-0.476-2.213-1.046-3.354-1.713c-1.142-0.666-2.165-1.475-3.069-2.427c-0.904-0.951-1.641-2.08-2.212-3.39
		c-0.571-1.308-0.856-2.818-0.856-4.531c0-1.759,0.367-3.4,1.106-4.924c0.737-1.521,1.759-2.842,3.068-3.96
		c1.308-1.117,2.855-1.986,4.639-2.604c1.784-0.618,3.746-0.928,5.887-0.928c2.806,0,5.398,0.535,7.778,1.605
		c2.378,1.07,4.4,2.463,6.066,4.175l-3.212,3.853c-1.427-1.379-3.009-2.462-4.745-3.246c-1.737-0.785-3.699-1.178-5.887-1.178
		c-2.617,0-4.722,0.606-6.315,1.819c-1.595,1.214-2.391,2.891-2.391,5.031c0,1.142,0.225,2.105,0.678,2.89
		c0.451,0.786,1.058,1.476,1.82,2.069c0.76,0.596,1.593,1.119,2.497,1.57c0.903,0.453,1.831,0.868,2.783,1.249l6.637,2.855
		c1.331,0.569,2.592,1.224,3.782,1.961c1.188,0.738,2.212,1.595,3.068,2.569c0.857,0.976,1.534,2.117,2.034,3.425
		c0.499,1.31,0.749,2.819,0.749,4.531c0,1.855-0.369,3.593-1.106,5.21c-0.738,1.617-1.796,3.032-3.175,4.245
		c-1.381,1.214-3.045,2.166-4.996,2.854c-1.951,0.689-4.163,1.035-6.636,1.035c-3.282,0-6.328-0.619-9.134-1.855
		c-2.808-1.236-5.234-2.926-7.279-5.066L3.568,261.554z"/>
	<path fill="#2A5CAA" d="M62.939,257.487H45.884l-4.496,14.271h-6.066l15.843-46.812h6.707l15.842,46.812h-6.351L62.939,257.487z
		 M61.44,252.706l-2.212-7.137c-0.856-2.615-1.666-5.219-2.426-7.813c-0.762-2.593-1.523-5.245-2.284-7.957h-0.285
		c-0.714,2.712-1.452,5.364-2.212,7.957c-0.762,2.595-1.57,5.198-2.427,7.813l-2.212,7.137H61.44z"/>
	<path fill="#2A5CAA" d="M74.499,238.291c1.808-1.188,3.151-2.449,4.032-3.782c0.88-1.331,1.32-3.044,1.32-5.138
		c-0.143,0.048-0.333,0.071-0.571,0.071c-0.999,0-1.88-0.309-2.64-0.928c-0.762-0.617-1.142-1.498-1.142-2.64
		c0-1.237,0.357-2.213,1.07-2.926c0.714-0.714,1.617-1.071,2.712-1.071c1.379,0,2.473,0.561,3.282,1.678
		c0.809,1.118,1.214,2.724,1.214,4.816c0,2.854-0.655,5.316-1.963,7.386c-1.309,2.069-3.2,3.817-5.673,5.245L74.499,238.291z"/>
	<path fill="#2A5CAA" d="M89.199,263.909c1.522,1.237,3.08,2.236,4.674,2.997c1.594,0.762,3.436,1.142,5.531,1.142
		c2.283,0,3.996-0.522,5.137-1.569c1.142-1.046,1.713-2.331,1.713-3.854c0-0.903-0.239-1.688-0.714-2.355
		c-0.476-0.665-1.082-1.248-1.82-1.748c-0.737-0.499-1.582-0.938-2.533-1.32c-0.952-0.38-1.903-0.76-2.854-1.142
		c-1.238-0.428-2.474-0.915-3.711-1.463c-1.237-0.546-2.343-1.213-3.318-1.998c-0.976-0.785-1.773-1.7-2.391-2.747
		c-0.618-1.046-0.927-2.307-0.927-3.782c0-1.379,0.273-2.676,0.82-3.889c0.547-1.214,1.332-2.26,2.355-3.141
		c1.023-0.879,2.271-1.568,3.747-2.068c1.474-0.499,3.14-0.749,4.995-0.749c2.188,0,4.198,0.38,6.03,1.141
		c1.83,0.762,3.413,1.689,4.745,2.783l-2.783,3.711c-1.19-0.903-2.426-1.642-3.711-2.213c-1.284-0.57-2.688-0.855-4.21-0.855
		c-2.189,0-3.794,0.499-4.817,1.498s-1.534,2.165-1.534,3.497c0,0.81,0.214,1.511,0.642,2.104c0.429,0.596,0.999,1.118,1.713,1.57
		c0.714,0.452,1.534,0.856,2.462,1.213c0.928,0.356,1.891,0.726,2.89,1.106c1.237,0.476,2.485,0.976,3.746,1.498
		c1.261,0.524,2.391,1.178,3.39,1.963s1.82,1.748,2.462,2.89s0.963,2.522,0.963,4.139c0,1.428-0.274,2.76-0.82,3.996
		c-0.548,1.238-1.356,2.333-2.427,3.283c-1.07,0.952-2.403,1.701-3.996,2.248c-1.594,0.546-3.414,0.82-5.459,0.82
		c-2.474,0-4.829-0.453-7.064-1.356c-2.237-0.902-4.187-2.044-5.852-3.425L89.199,263.909z"/>
	<path fill="#2A5CAA" d="M135.011,224.947h6.137l16.912,29.399l5.067,9.705h0.285c-0.143-2.378-0.297-4.84-0.464-7.386
		c-0.167-2.544-0.25-5.054-0.25-7.528v-24.19h5.638v46.813h-6.137l-16.983-29.473l-5.067-9.634h-0.285
		c0.189,2.38,0.367,4.794,0.535,7.243c0.166,2.451,0.249,4.913,0.249,7.386v24.478h-5.637V224.947z"/>
	<path fill="#2A5CAA" d="M178.041,254.49c0-2.901,0.439-5.483,1.319-7.743c0.88-2.259,2.058-4.175,3.533-5.744
		c1.474-1.57,3.175-2.759,5.102-3.568c1.927-0.809,3.961-1.213,6.101-1.213c2.141,0,4.175,0.404,6.102,1.213
		c1.926,0.81,3.627,1.998,5.102,3.568c1.474,1.569,2.651,3.485,3.532,5.744c0.88,2.26,1.32,4.842,1.32,7.743
		c0,2.854-0.44,5.412-1.32,7.671c-0.881,2.26-2.058,4.163-3.532,5.709c-1.475,1.546-3.176,2.724-5.102,3.532
		c-1.927,0.808-3.961,1.213-6.102,1.213c-2.14,0-4.174-0.405-6.101-1.213c-1.927-0.809-3.628-1.986-5.102-3.532
		c-1.475-1.546-2.653-3.449-3.533-5.709C178.479,259.902,178.041,257.343,178.041,254.49 M184.105,254.49
		c0,1.998,0.237,3.806,0.713,5.423c0.475,1.618,1.154,3.01,2.035,4.175c0.879,1.166,1.937,2.069,3.175,2.711
		c1.236,0.643,2.592,0.963,4.067,0.963c1.474,0,2.83-0.32,4.068-0.963c1.236-0.642,2.295-1.545,3.175-2.711
		c0.88-1.165,1.558-2.557,2.034-4.175c0.475-1.617,0.713-3.425,0.713-5.423c0-1.999-0.238-3.818-0.713-5.46
		c-0.476-1.641-1.154-3.056-2.034-4.245c-0.88-1.188-1.939-2.106-3.175-2.748c-1.238-0.642-2.594-0.963-4.068-0.963
		c-1.475,0-2.831,0.321-4.067,0.963c-1.238,0.642-2.296,1.56-3.175,2.748c-0.881,1.189-1.56,2.604-2.035,4.245
		C184.342,250.671,184.105,252.491,184.105,254.49"/>
	<path fill="#2A5CAA" d="M217.359,268.19c0-1.379,0.416-2.485,1.249-3.317c0.832-0.832,1.843-1.249,3.033-1.249
		c1.141,0,2.128,0.417,2.961,1.249c0.832,0.832,1.249,1.938,1.249,3.317c0,1.285-0.417,2.344-1.249,3.176
		c-0.833,0.832-1.82,1.249-2.961,1.249c-1.19,0-2.201-0.417-3.033-1.249C217.775,270.534,217.359,269.475,217.359,268.19"/>
	<path fill="#2A5CAA" d="M236.126,266.906h10.419v-33.539h-8.278v-3.782c2.093-0.38,3.913-0.844,5.459-1.392
		c1.546-0.546,2.937-1.2,4.174-1.962h4.496v40.675h9.419v4.854h-25.689V266.906z"/>
	<path fill="#2A5CAA" d="M286.791,224.947h14.343c2.569,0,4.924,0.238,7.065,0.713c2.141,0.477,3.96,1.249,5.459,2.319
		c1.498,1.07,2.664,2.486,3.497,4.246c0.831,1.761,1.248,3.925,1.248,6.494c0,2.474-0.417,4.613-1.248,6.422
		c-0.833,1.809-2.011,3.307-3.533,4.496c-1.523,1.189-3.343,2.081-5.459,2.676c-2.117,0.595-4.46,0.892-7.029,0.892h-8.42v18.554
		h-5.923V224.947z M300.42,248.352c4.091,0,7.124-0.772,9.098-2.319c1.974-1.545,2.962-3.983,2.962-7.313
		c0-3.378-0.999-5.722-2.997-7.029c-1.999-1.308-5.02-1.963-9.063-1.963h-7.707v18.625H300.42z"/>
	<path fill="#2A5CAA" d="M327.322,237.078h4.853l0.499,6.279h0.214c1.188-2.188,2.628-3.926,4.317-5.209
		c1.688-1.284,3.533-1.927,5.531-1.927c1.379,0,2.615,0.238,3.711,0.714l-1.143,5.138c-0.57-0.189-1.094-0.332-1.569-0.429
		c-0.476-0.095-1.071-0.143-1.785-0.143c-1.475,0-3.009,0.596-4.602,1.784c-1.594,1.188-2.986,3.26-4.174,6.208v22.265h-5.852
		V237.078z"/>
	<path fill="#2A5CAA" d="M348.801,254.49c0-2.901,0.439-5.483,1.319-7.743c0.88-2.259,2.058-4.175,3.533-5.744
		c1.474-1.57,3.175-2.759,5.102-3.568c1.927-0.809,3.961-1.213,6.101-1.213c2.141,0,4.175,0.404,6.102,1.213
		c1.926,0.81,3.627,1.998,5.102,3.568c1.474,1.569,2.651,3.485,3.532,5.744c0.88,2.26,1.32,4.842,1.32,7.743
		c0,2.854-0.44,5.412-1.32,7.671c-0.881,2.26-2.058,4.163-3.532,5.709c-1.475,1.546-3.176,2.724-5.102,3.532
		c-1.927,0.808-3.961,1.213-6.102,1.213c-2.14,0-4.174-0.405-6.101-1.213c-1.927-0.809-3.628-1.986-5.102-3.532
		c-1.475-1.546-2.653-3.449-3.533-5.709C349.24,259.902,348.801,257.343,348.801,254.49 M354.866,254.49
		c0,1.998,0.237,3.806,0.713,5.423c0.475,1.618,1.154,3.01,2.035,4.175c0.879,1.166,1.937,2.069,3.175,2.711
		c1.236,0.643,2.592,0.963,4.067,0.963c1.474,0,2.83-0.32,4.068-0.963c1.236-0.642,2.295-1.545,3.175-2.711
		c0.88-1.165,1.558-2.557,2.034-4.175c0.475-1.617,0.713-3.425,0.713-5.423c0-1.999-0.238-3.818-0.713-5.46
		c-0.476-1.641-1.154-3.056-2.034-4.245c-0.88-1.188-1.939-2.106-3.175-2.748c-1.238-0.642-2.594-0.963-4.068-0.963
		c-1.475,0-2.831,0.321-4.067,0.963c-1.238,0.642-2.296,1.56-3.175,2.748c-0.881,1.189-1.56,2.604-2.035,4.245
		C355.103,250.671,354.866,252.491,354.866,254.49"/>
	<path fill="#2A5CAA" d="M395.897,274.684v11.703h-5.852v-49.31h4.853l0.499,3.996h0.214c1.57-1.331,3.294-2.473,5.174-3.426
		c1.879-0.95,3.841-1.427,5.887-1.427c2.236,0,4.21,0.417,5.923,1.249c1.713,0.833,3.14,2.022,4.281,3.567
		c1.143,1.547,2.01,3.402,2.605,5.566c0.595,2.165,0.892,4.603,0.892,7.314c0,2.95-0.405,5.578-1.213,7.885
		c-0.809,2.309-1.903,4.271-3.283,5.888c-1.38,1.618-2.973,2.843-4.78,3.675c-1.809,0.832-3.711,1.249-5.709,1.249
		c-1.618,0-3.224-0.356-4.817-1.07c-1.594-0.714-3.2-1.688-4.817-2.926L395.897,274.684z M395.897,264.051
		c1.57,1.333,3.092,2.272,4.567,2.819c1.474,0.547,2.783,0.82,3.925,0.82c1.427,0,2.747-0.321,3.96-0.964
		c1.213-0.642,2.259-1.545,3.14-2.711c0.88-1.165,1.57-2.604,2.069-4.317c0.5-1.713,0.75-3.64,0.75-5.78
		c0-1.902-0.168-3.639-0.5-5.209c-0.333-1.57-0.869-2.914-1.605-4.032c-0.739-1.117-1.69-1.985-2.855-2.604
		c-1.166-0.618-2.557-0.928-4.174-0.928c-1.476,0-2.962,0.404-4.461,1.213c-1.498,0.81-3.104,1.975-4.816,3.497V264.051z"/>
	<path fill="#2A5CAA" d="M427.082,254.49c0-2.854,0.439-5.412,1.32-7.672c0.88-2.259,2.045-4.174,3.496-5.744
		c1.451-1.57,3.105-2.771,4.96-3.604c1.855-0.832,3.782-1.249,5.78-1.249c2.187,0,4.15,0.381,5.887,1.142
		c1.736,0.762,3.187,1.855,4.353,3.282c1.165,1.428,2.057,3.141,2.676,5.139c0.618,1.998,0.928,4.234,0.928,6.707
		c0,1.285-0.072,2.355-0.214,3.212h-23.406c0.237,3.759,1.391,6.732,3.461,8.92c2.069,2.188,4.769,3.282,8.099,3.282
		c1.665,0,3.199-0.25,4.603-0.749c1.402-0.5,2.747-1.153,4.031-1.963l2.07,3.854c-1.523,0.952-3.211,1.784-5.067,2.498
		c-1.855,0.714-3.972,1.07-6.351,1.07c-2.331,0-4.508-0.417-6.529-1.249c-2.022-0.832-3.782-2.021-5.281-3.568
		c-1.498-1.545-2.676-3.436-3.532-5.673C427.51,259.889,427.082,257.343,427.082,254.49 M451.344,251.849
		c0-3.568-0.75-6.291-2.248-8.171c-1.499-1.879-3.604-2.818-6.315-2.818c-1.238,0-2.416,0.249-3.533,0.749
		c-1.118,0.499-2.129,1.213-3.032,2.141c-0.905,0.928-1.654,2.069-2.248,3.426c-0.596,1.355-0.988,2.914-1.178,4.674H451.344z"/>
	<path fill="#2A5CAA" d="M465.044,237.078h4.853l0.499,6.279h0.214c1.188-2.188,2.628-3.926,4.317-5.209
		c1.688-1.284,3.533-1.927,5.531-1.927c1.379,0,2.615,0.238,3.711,0.714l-1.143,5.138c-0.57-0.189-1.094-0.332-1.569-0.429
		c-0.476-0.095-1.071-0.143-1.785-0.143c-1.475,0-3.009,0.596-4.602,1.784c-1.594,1.188-2.986,3.26-4.174,6.208v22.265h-5.852
		V237.078z"/>
	<path fill="#2A5CAA" d="M490.803,241.859h-5.138v-4.425l5.423-0.356l0.714-9.705h4.924v9.705h9.348v4.781h-9.348v19.267
		c0,2.141,0.392,3.796,1.177,4.96c0.785,1.166,2.177,1.748,4.175,1.748c0.618,0,1.284-0.095,1.998-0.285
		c0.713-0.189,1.356-0.404,1.927-0.643l1.142,4.425c-0.952,0.333-1.987,0.63-3.104,0.892c-1.118,0.261-2.224,0.393-3.318,0.393
		c-1.856,0-3.414-0.285-4.674-0.856c-1.261-0.571-2.284-1.355-3.069-2.354c-0.784-0.999-1.344-2.213-1.676-3.64
		c-0.334-1.428-0.5-2.997-0.5-4.71V241.859z"/>
	<path fill="#2A5CAA" d="M512.854,281.642c0.475,0.118,0.928,0.178,1.355,0.178c1.998,0,3.627-0.702,4.889-2.104
		c1.26-1.404,2.247-3.176,2.961-5.316l0.785-2.57l-13.915-34.751h6.065l7.064,19.195c0.523,1.523,1.082,3.129,1.677,4.817
		s1.153,3.343,1.679,4.959h0.284c0.522-1.569,1.022-3.211,1.498-4.924c0.476-1.712,0.951-3.329,1.429-4.853l6.207-19.195h5.709
		l-13.059,37.535c-0.619,1.713-1.31,3.306-2.068,4.781c-0.763,1.474-1.666,2.747-2.713,3.817s-2.237,1.914-3.568,2.533
		c-1.332,0.618-2.879,0.928-4.638,0.928c-0.81,0-1.547-0.061-2.213-0.179c-0.667-0.119-1.284-0.297-1.855-0.535l1.143-4.638
		C511.949,281.416,512.377,281.522,512.854,281.642"/>
	<path fill="#2A5CAA" d="M557.453,224.947h6.137l4.924,25.475c0.428,2.569,0.879,5.092,1.355,7.564
		c0.476,2.475,0.928,4.995,1.355,7.565h0.286c0.522-2.57,1.07-5.104,1.642-7.601c0.57-2.498,1.117-5.007,1.641-7.529l6.494-25.475
		h5.423l6.494,25.475c0.57,2.475,1.142,4.972,1.713,7.493c0.57,2.522,1.142,5.066,1.712,7.637h0.286
		c0.428-2.57,0.856-5.104,1.284-7.601c0.428-2.498,0.88-5.007,1.355-7.529l4.924-25.475h5.709l-9.705,46.813h-7.136l-7.064-28.188
		c-0.429-1.807-0.82-3.579-1.178-5.315c-0.356-1.736-0.726-3.508-1.105-5.316h-0.286c-0.381,1.809-0.773,3.58-1.177,5.316
		c-0.405,1.736-0.798,3.509-1.178,5.315l-6.922,28.188h-7.064L557.453,224.947z"/>
	<path fill="#2A5CAA" d="M615.182,254.49c0-2.854,0.439-5.412,1.32-7.672c0.881-2.259,2.045-4.174,3.497-5.744
		c1.45-1.57,3.104-2.771,4.959-3.604c1.855-0.832,3.782-1.249,5.78-1.249c2.188,0,4.15,0.381,5.888,1.142
		c1.735,0.762,3.187,1.855,4.353,3.282c1.165,1.428,2.057,3.141,2.676,5.139c0.618,1.998,0.928,4.234,0.928,6.707
		c0,1.285-0.071,2.355-0.214,3.212h-23.406c0.237,3.759,1.392,6.732,3.461,8.92c2.069,2.188,4.769,3.282,8.1,3.282
		c1.665,0,3.199-0.25,4.603-0.749c1.402-0.5,2.747-1.153,4.032-1.963l2.069,3.854c-1.523,0.952-3.212,1.784-5.066,2.498
		c-1.855,0.714-3.973,1.07-6.352,1.07c-2.331,0-4.508-0.417-6.529-1.249s-3.782-2.021-5.28-3.568
		c-1.499-1.545-2.677-3.436-3.532-5.673C615.61,259.889,615.182,257.343,615.182,254.49 M639.444,251.849
		c0-3.568-0.749-6.291-2.248-8.171c-1.498-1.879-3.604-2.818-6.315-2.818c-1.237,0-2.416,0.249-3.532,0.749
		c-1.118,0.499-2.13,1.213-3.032,2.141c-0.904,0.928-1.654,2.069-2.248,3.426c-0.596,1.355-0.988,2.914-1.178,4.674H639.444z"/>
	<path fill="#2A5CAA" d="M653.144,220.951h5.853v13.844l-0.143,6.279c1.569-1.379,3.282-2.533,5.138-3.46
		c1.855-0.929,3.758-1.393,5.709-1.393c2.234,0,4.21,0.417,5.923,1.249c1.712,0.833,3.15,2.022,4.317,3.567
		c1.165,1.547,2.045,3.402,2.64,5.566c0.595,2.165,0.893,4.579,0.893,7.243c0,2.95-0.405,5.591-1.214,7.921
		c-0.809,2.331-1.903,4.306-3.283,5.923c-1.379,1.618-2.973,2.843-4.78,3.675c-1.809,0.832-3.711,1.249-5.709,1.249
		c-1.617,0-3.294-0.369-5.03-1.106c-1.737-0.736-3.366-1.795-4.889-3.175h-0.214l-0.5,3.425h-4.71V220.951z M658.996,264.051
		c1.521,1.333,3.032,2.272,4.531,2.819c1.498,0.547,2.818,0.82,3.96,0.82c1.428,0,2.748-0.321,3.961-0.964
		c1.213-0.642,2.259-1.545,3.14-2.711c0.88-1.165,1.57-2.604,2.069-4.317c0.5-1.713,0.75-3.64,0.75-5.78
		c0-1.902-0.168-3.639-0.5-5.209c-0.333-1.57-0.868-2.914-1.605-4.032c-0.739-1.117-1.689-1.985-2.854-2.604
		c-1.166-0.618-2.558-0.928-4.176-0.928c-2.807,0-5.898,1.57-9.275,4.71V264.051z"/>
	<path fill="#2A5CAA" d="M691.821,263.909c1.521,1.237,3.08,2.236,4.674,2.997c1.594,0.762,3.437,1.142,5.53,1.142
		c2.284,0,3.996-0.522,5.139-1.569c1.141-1.046,1.712-2.331,1.712-3.854c0-0.903-0.239-1.688-0.713-2.355
		c-0.477-0.665-1.083-1.248-1.821-1.748c-0.737-0.499-1.582-0.938-2.532-1.32c-0.952-0.38-1.903-0.76-2.854-1.142
		c-1.238-0.428-2.474-0.915-3.711-1.463c-1.237-0.546-2.343-1.213-3.318-1.998c-0.975-0.785-1.772-1.7-2.39-2.747
		c-0.619-1.046-0.928-2.307-0.928-3.782c0-1.379,0.272-2.676,0.819-3.889c0.548-1.214,1.331-2.26,2.355-3.141
		c1.021-0.879,2.271-1.568,3.747-2.068c1.474-0.499,3.14-0.749,4.995-0.749c2.188,0,4.198,0.38,6.029,1.141
		c1.83,0.762,3.412,1.689,4.745,2.783l-2.782,3.711c-1.189-0.903-2.427-1.642-3.711-2.213c-1.284-0.57-2.688-0.855-4.211-0.855
		c-2.188,0-3.794,0.499-4.815,1.498c-1.024,0.999-1.535,2.165-1.535,3.497c0,0.81,0.215,1.511,0.642,2.104
		c0.43,0.596,0.999,1.118,1.714,1.57c0.714,0.452,1.533,0.856,2.462,1.213c0.928,0.356,1.891,0.726,2.89,1.106
		c1.236,0.476,2.485,0.976,3.747,1.498c1.26,0.524,2.39,1.178,3.39,1.963c0.999,0.785,1.819,1.748,2.461,2.89
		c0.643,1.142,0.964,2.522,0.964,4.139c0,1.428-0.274,2.76-0.82,3.996c-0.548,1.238-1.356,2.333-2.427,3.283
		c-1.07,0.952-2.402,1.701-3.996,2.248c-1.596,0.546-3.414,0.82-5.459,0.82c-2.474,0-4.829-0.453-7.064-1.356
		c-2.237-0.902-4.187-2.044-5.852-3.425L691.821,263.909z"/>
	<path fill="#2A5CAA" d="M725.645,229.942c-1.142,0-2.105-0.357-2.89-1.07c-0.785-0.714-1.178-1.617-1.178-2.712
		c0-1.142,0.393-2.058,1.178-2.747c0.784-0.689,1.748-1.035,2.89-1.035s2.105,0.346,2.89,1.035c0.785,0.689,1.178,1.605,1.178,2.747
		c0,1.095-0.393,1.998-1.178,2.712C727.75,229.584,726.786,229.942,725.645,229.942 M722.648,237.078h5.852v34.681h-5.852V237.078z"
		/>
	<path fill="#2A5CAA" d="M741.2,241.859h-5.138v-4.425l5.423-0.356l0.714-9.705h4.924v9.705h9.348v4.781h-9.348v19.267
		c0,2.141,0.392,3.796,1.178,4.96c0.784,1.166,2.176,1.748,4.174,1.748c0.618,0,1.285-0.095,1.997-0.285
		c0.715-0.189,1.357-0.404,1.928-0.643l1.142,4.425c-0.952,0.333-1.987,0.63-3.104,0.892c-1.118,0.261-2.225,0.393-3.318,0.393
		c-1.856,0-3.414-0.285-4.674-0.856c-1.262-0.571-2.284-1.355-3.068-2.354c-0.785-0.999-1.345-2.213-1.678-3.64
		c-0.333-1.428-0.499-2.997-0.499-4.71V241.859z"/>
	<path fill="#2A5CAA" d="M761.038,254.49c0-2.854,0.439-5.412,1.32-7.672c0.88-2.259,2.045-4.174,3.497-5.744
		c1.45-1.57,3.104-2.771,4.959-3.604c1.855-0.832,3.782-1.249,5.78-1.249c2.187,0,4.15,0.381,5.888,1.142
		c1.735,0.762,3.187,1.855,4.353,3.282c1.165,1.428,2.057,3.141,2.676,5.139c0.618,1.998,0.928,4.234,0.928,6.707
		c0,1.285-0.071,2.355-0.214,3.212h-23.406c0.237,3.759,1.392,6.732,3.461,8.92c2.069,2.188,4.769,3.282,8.1,3.282
		c1.665,0,3.199-0.25,4.603-0.749c1.402-0.5,2.747-1.153,4.032-1.963l2.069,3.854c-1.523,0.952-3.212,1.784-5.066,2.498
		c-1.855,0.714-3.973,1.07-6.352,1.07c-2.331,0-4.509-0.417-6.529-1.249c-2.022-0.832-3.782-2.021-5.28-3.568
		c-1.499-1.545-2.677-3.436-3.533-5.673C761.467,259.889,761.038,257.343,761.038,254.49 M785.301,251.849
		c0-3.568-0.749-6.291-2.248-8.171c-1.498-1.879-3.604-2.818-6.315-2.818c-1.237,0-2.415,0.249-3.532,0.749
		c-1.118,0.499-2.13,1.213-3.032,2.141c-0.904,0.928-1.654,2.069-2.248,3.426c-0.596,1.355-0.988,2.914-1.178,4.674H785.301z"/>
</g>
</svg>
